<svg width="680" height="6" fill="none" xmlns="http://www.w3.org/2000/svg">
  <path d="M668.26 4.02c5.87 0 5.87-4 11.74-4V6H0V.02c5.63-.38 5.9 4 11.69 4 5.86 0 5.86-4 11.72-4s5.86 4 11.72 4 5.86-4 11.72-4 5.86 4 11.72 4 5.86-4 11.71-4c5.86 0 5.86 4 11.72 4s5.86-4 11.72-4 5.86 4 11.72 4 5.86-4 11.72-4 5.86 4 11.72 4c5.87 0 5.87-4 11.73-4s5.86 4 11.72 4 5.86-4 11.72-4 5.86 4 11.72 4c5.87 0 5.87-4 11.73-4s5.86 4 11.72 4 5.86-4 11.72-4 5.86 4 11.72 4c5.85 0 5.85-4 11.71-4 5.86 0 5.86 4 11.72 4s5.86-4 11.72-4c5.87 0 5.87 4 11.73 4s5.86-4 11.72-4c5.87 0 5.87 4 11.73 4s5.86-4 11.72-4 5.86 4 11.72 4c5.87 0 5.87-4 11.73-4s5.86 4 11.72 4c5.87 0 5.87-4 11.73-4s5.86 4 11.72 4c5.87 0 5.87-4 11.73-4 5.87 0 5.87 4 11.73 4s5.86-4 11.72-4c5.88 0 5.88 4 11.73 4 5.87 0 5.87-4 11.73-4 5.87 0 5.87 4 11.73 4 5.87 0 5.87-4 11.73-4 5.87 0 5.87 4 11.73 4 5.87 0 5.87-4 11.73-4s5.86 4 11.72 4 5.86-4 11.72-4c5.87 0 5.87 4 11.73 4s5.86-4 11.72-4c5.87 0 5.87 4 11.73 4 5.87 0 5.87-4 11.73-4 5.87 0 5.87 4 11.73 4 5.87 0 5.87-4 11.73-4 5.87 0 5.87 4 11.72 4 5.88 0 5.88-4 11.74-4s5.86 4 11.72 4c5.87 0 5.87-4 11.73-4 5.87 0 5.87 4 11.73 4 5.87 0 5.87-4 11.73-4 5.87 0 5.87 4 11.73 4s5.86-4 11.73-4 5.87 4 11.73 4z" fill="#FFE400"/>
</svg>
